<svg x="0" y="0" version="1.1" xmlns="http://www.w3.org/2000/svg" xmlns:xlink="http://www.w3.org/1999/xlink" viewBox="0 0 48 48" width="500" height="500" style="fill: rgb(243, 156, 18);"><g transform=""><g fill="none" stroke="none" stroke-width="1" stroke-linecap="butt" stroke-linejoin="miter" stroke-miterlimit="10" stroke-dasharray="" stroke-dashoffset="0" font-family="sans-serif" font-weight="normal" font-size="12" text-anchor="start" mix-blend-mode="normal"><g><g><g><path d="M0,48l0,-48l48,0l0,48z" fill="#cccccc"/><g><g id="surface1"><path d="M8,37l3,0l0,3l-3,0z" fill="#b76648"/><path d="M11,34l3,0l0,3l-3,0z" fill="#b76648"/><path d="M23,22l3,0l0,3l-3,0z" fill="#b76648"/><path d="M26,19l3,0l0,3l-3,0z" fill="#b76648"/><path d="M38,7l3,0l0,3l-3,0z" fill="#b76648"/><path d="M35,10l3,0l0,3l-3,0z" fill="#b76648"/><path d="M29,16l3,0l0,3l-3,0z" fill="#b76648"/><path d="M14,31l3,0l0,3l-3,0z" fill="#b76648"/><path d="M17,28l3,0l0,3l-3,0z" fill="#b76648"/><path d="M20,25l3,0l0,3l-3,0z" fill="#b76648"/><path d="M11,37l3,0l0,3l-3,0z" fill="#37474f"/><path d="M14,34l3,0l0,3l-3,0z" fill="#37474f"/><path d="M29,19l3,0l0,3l-3,0z" fill="#37474f"/><path d="M26,22l3,0l0,3l-3,0z" fill="#37474f"/><path d="M32,16l3,0l0,3l-3,0z" fill="#37474f"/><path d="M8,40l0,-3l-3,0l0,6l6,0l0,-3z" fill="#37474f"/><path d="M8,34l3,0l0,3l-3,0z" fill="#37474f"/><path d="M11,31l3,0l0,3l-3,0z" fill="#37474f"/><path d="M23,19l3,0l0,3l-3,0z" fill="#37474f"/><path d="M26,16l3,0l0,3l-3,0z" fill="#37474f"/><path d="M29,13l3,0l0,3l-3,0z" fill="#37474f"/><path d="M35,7l3,0l0,3l-3,0z" fill="#37474f"/><path d="M38,10l3,0l0,3l-3,0z" fill="#37474f"/><path d="M20,28l3,0l0,3l-3,0z" fill="#37474f"/><path d="M17,31l3,0l0,3l-3,0z" fill="#37474f"/><path d="M23,25l3,0l0,3l-3,0z" fill="#37474f"/><path d="M14,28l3,0l0,3l-3,0z" fill="#37474f"/><path d="M17,25l3,0l0,3l-3,0z" fill="#37474f"/><path d="M20,22l3,0l0,3l-3,0z" fill="#37474f"/><path d="M17,10l12,0l0,3l-12,0z" fill="#00bcd4"/><path d="M14,7l3,0l0,3l-3,0z" fill="#00bcd4"/><path d="M17,4l15,0l0,3l-15,0z" fill="#00bcd4"/><path d="M32,7l3,0l0,3l-3,0z" fill="#00bcd4"/><path d="M38,13l3,0l0,3l-3,0z" fill="#00bcd4"/><path d="M35,19l3,0l0,12l-3,0z" fill="#00bcd4"/><path d="M41,16l3,0l0,15l-3,0z" fill="#00bcd4"/><path d="M38,31l3,0l0,3l-3,0z" fill="#00bcd4"/><path d="M17,7l0,3l12,0l0,3l3,0l0,3l3,0l0,3l3,0l0,12l3,0l0,-15l-3,0l0,-3l-3,0l0,-3l-3,0l0,-3z" fill="#4dd0e1"/></g></g><g><g id="Слой_1"><g><path d="M42.33151,33.10124c0,5.5 -4.5,10 -10,10c-5.5,0 -10,-4.5 -10,-10c0,-5.5 4.5,-10 10,-10c5.5,0 10,4.5 10,10" fill="#ff3d00"/><path d="M37.63151,29.90124l-2.1,-2.1l-3.2,3.2l-3.2,-3.2l-2.1,2.1l3.2,3.2l-3.2,3.2l2.1,2.1l3.2,-3.2l3.2,3.2l2.1,-2.1l-3.2,-3.2z" fill="#ffffff"/></g></g></g></g></g></g></g></g></svg>